# xmcd CD database file
#
# Track frame offsets:
#	150
#	14931
#	30423
#	43657
#	62151
#	77465
#	89930
#	111589
#	126894
#	142276
#	159533
#	173652
#	188249
#	201613
#	212571
#	226122
#	238327
#	254036
#	270499
#
# Disc length: 3844 seconds
#
# Revision: 0
# Processed by: cddbd v1.4PL0 Copyright (c) Steve Scherf et al.
# Submitted via: CDex 1.50Beta7
#
DISCID=260f0213
DTITLE=Rozni - Hity Z Tamtych Lat
DYEAR=2001
DGENRE=Country
TTITLE0=Augustowskie Noce
TTITLE1=Beata Z Albatrosa
TTITLE2=Gdy Mi Ciebie Zabrakni
TTITLE3=Kasztany
TTITLE4=Kuba Wyspa Jak Wulkan Goraca
TTITLE5=Mala Blekitna Chusteczka
TTITLE6=Odplywaja Kawiarenki
TTITLE7=Maly Bialy Domek
TTITLE8=Moje Jedyne Marzenie
TTITLE9=Przyjdzie Na To Czas
TTITLE10=Zielone Wzgorza Nad Solina
TTITLE11=Rudy Rydz
TTITLE12=Zakochani Sa Wsrod Nas
TTITLE13=Wala Twist
TTITLE14=Goniac Kormorany
TTITLE15=Pod Papugami
TTITLE16=Po Slonecznej Stronie Zycia
TTITLE17=Daj Mi Te Noc
TTITLE18=Besame Mucho
EXTD=YEAR: 2001
EXTT0=
EXTT1=
EXTT2=
EXTT3=
EXTT4=
EXTT5=
EXTT6=
EXTT7=
EXTT8=
EXTT9=
EXTT10=
EXTT11=
EXTT12=
EXTT13=
EXTT14=
EXTT15=
EXTT16=
EXTT17=
EXTT18=
PLAYORDER=
